<?xml version="1.0" encoding="UTF-8"?>
<!DOCTYPE svg PUBLIC "-//W3C//DTD SVG 1.1//EN" "http://www.w3.org/Graphics/SVG/1.1/DTD/svg11.dtd">
<svg xmlns="http://www.w3.org/2000/svg" version="1.1" width="500px" height="281px" style="shape-rendering:geometricPrecision; text-rendering:geometricPrecision; image-rendering:optimizeQuality; fill-rule:evenodd; clip-rule:evenodd" xmlns:xlink="http://www.w3.org/1999/xlink">
<g><path style="opacity:0.988" fill="#f7931c" d="M 253.5,57.5 C 255.977,58.12 255.977,59.12 253.5,60.5C 253.977,61.4776 254.643,62.3109 255.5,63C 252.563,65.2206 251.063,68.0539 251,71.5C 255.434,64.9507 260.101,58.6174 265,52.5C 268.167,50 271.333,47.5 274.5,45C 276.439,43.5679 277.772,41.7346 278.5,39.5C 278.5,39.1667 278.5,38.8333 278.5,38.5C 283.088,37.8732 286.755,35.7065 289.5,32C 294.291,30.549 298.624,28.2156 302.5,25C 316.336,19.33 330.336,14.83 344.5,11.5C 344.833,11.5 345.167,11.5 345.5,11.5C 348.126,13.0059 350.126,12.3392 351.5,9.5C 352.919,10.4511 354.585,10.7845 356.5,10.5C 357.833,10.5 359.167,10.5 360.5,10.5C 361.167,10.5 361.833,10.5 362.5,10.5C 364.167,10.5 365.833,10.5 367.5,10.5C 368.167,10.5 368.833,10.5 369.5,10.5C 370.833,10.5 372.167,10.5 373.5,10.5C 373.791,11.6491 374.624,12.3158 376,12.5C 377.07,12.472 377.903,12.1386 378.5,11.5C 378.833,11.5 379.167,11.5 379.5,11.5C 380.5,11.5 381.5,11.5 382.5,11.5C 384.216,11.6287 385.883,11.962 387.5,12.5C 396.558,15.9244 406.224,19.4244 416.5,23C 446.578,37.2445 468.912,59.4112 483.5,89.5C 483.957,90.2975 484.624,90.6309 485.5,90.5C 485.5,90.8333 485.5,91.1667 485.5,91.5C 487.414,98.652 489.414,105.819 491.5,113C 491.836,114.03 492.503,114.53 493.5,114.5C 494.078,116.443 495.078,116.777 496.5,115.5C 499.125,116.534 499.125,117.534 496.5,118.5C 494.698,119.315 493.698,120.815 493.5,123C 495.664,125.744 496.664,128.577 496.5,131.5C 496.5,134.5 496.5,137.5 496.5,140.5C 496.5,144.833 496.5,149.167 496.5,153.5C 494.463,156.289 494.13,159.289 495.5,162.5C 492.649,165.723 492.983,168.39 496.5,170.5C 496.5,171.167 496.5,171.833 496.5,172.5C 495.5,173.167 494.5,173.833 493.5,174.5C 478.756,223.417 447.256,256.751 399,274.5C 397.244,273.452 395.41,273.452 393.5,274.5C 392.287,274.747 391.62,275.414 391.5,276.5C 390.566,277.568 390.232,278.901 390.5,280.5C 389.5,280.5 388.5,280.5 387.5,280.5C 387.5,279.833 387.5,279.167 387.5,278.5C 387.158,277.662 386.492,277.328 385.5,277.5C 382.101,278.236 378.434,278.236 374.5,277.5C 372.667,277.585 371.334,278.252 370.5,279.5C 369.833,279.5 369.5,279.833 369.5,280.5C 360.833,280.5 352.167,280.5 343.5,280.5C 343.006,277.094 341.339,276.094 338.5,277.5C 338.167,277.5 337.833,277.5 337.5,277.5C 337.167,277.5 336.833,277.5 336.5,277.5C 336.38,276.414 335.713,275.747 334.5,275.5C 326.518,273.673 318.684,271.339 311,268.5C 310.098,268.743 309.265,269.077 308.5,269.5C 308.5,268.833 308.167,268.5 307.5,268.5C 307.586,267.504 307.252,266.671 306.5,266C 284.458,255.638 266.292,240.471 252,220.5C 251.674,223.332 252.174,225.999 253.5,228.5C 251.518,228.995 249.518,229.495 247.5,230C 224.056,257.724 194.39,274.557 158.5,280.5C 146.167,280.5 133.833,280.5 121.5,280.5C 59.8909,268.398 20.3909,232.064 3,171.5C -7.53065,110.43 11.9694,61.5968 61.5,25C 102.743,-1.14177 146.41,-5.80843 192.5,11C 216.906,21.4507 237.073,37.2841 253,58.5C 253.399,58.2716 253.565,57.9382 253.5,57.5 Z M 283.5,31.5 C 283.5,31.1667 283.5,30.8333 283.5,30.5C 283.833,30.5 284.167,30.5 284.5,30.5C 285.573,31.2506 285.74,32.2506 285,33.5C 284.722,32.5842 284.222,31.9175 283.5,31.5 Z"/></g>
<g><path style="opacity:0.016" fill="#b6fe3d" d="M 342.5,6.5 C 342.167,6.5 341.833,6.5 341.5,6.5C 341.74,3.70675 342.74,3.20675 344.5,5C 343.956,5.71719 343.289,6.21719 342.5,6.5 Z"/></g>
<g><path style="opacity:0.02" fill="#b2e572" d="M 382.5,11.5 C 381.5,11.5 380.5,11.5 379.5,11.5C 379.5,10.8333 379.167,10.5 378.5,10.5C 376.833,9.16667 375.167,9.16667 373.5,10.5C 372.167,10.5 370.833,10.5 369.5,10.5C 369.5,10.1667 369.5,9.83333 369.5,9.5C 369.07,8.579 367.736,8.079 365.5,8C 367.384,7.78369 369.051,7.11702 370.5,6C 368.402,5.32239 366.402,5.48905 364.5,6.5C 363.833,6.5 363.5,6.83333 363.5,7.5C 362.167,7.5 360.833,7.5 359.5,7.5C 359.5,6.83333 359.167,6.5 358.5,6.5C 353.248,5.72476 348.248,6.72476 343.5,9.5C 343.5,9.16667 343.5,8.83333 343.5,8.5C 343.5,8.16667 343.5,7.83333 343.5,7.5C 344.627,6.87833 345.627,6.04499 346.5,5C 349.706,4.70366 352.872,4.20366 356,3.5C 362.548,4.05925 369.048,4.05925 375.5,3.5C 377.765,3.93972 379.932,4.60639 382,5.5C 382.495,7.4727 382.662,9.4727 382.5,11.5 Z"/></g>
<g><path style="opacity:0.024" fill="#c58cb7" d="M 369.5,9.5 C 368.508,9.32842 367.842,9.66175 367.5,10.5C 365.833,10.5 364.167,10.5 362.5,10.5C 361.833,9.16667 361.167,9.16667 360.5,10.5C 359.167,10.5 357.833,10.5 356.5,10.5C 356.5,10.1667 356.5,9.83333 356.5,9.5C 357.167,9.5 357.833,9.5 358.5,9.5C 359.338,9.15829 359.672,8.49162 359.5,7.5C 360.833,7.5 362.167,7.5 363.5,7.5C 364.167,7.5 364.5,7.16667 364.5,6.5C 366.402,5.48905 368.402,5.32239 370.5,6C 369.051,7.11702 367.384,7.78369 365.5,8C 367.736,8.079 369.07,8.579 369.5,9.5 Z"/></g>
<g><path style="opacity:0.004" fill="#f477e1" d="M 378.5,5.5 C 378.5,6.16667 378.5,6.83333 378.5,7.5C 371.833,6.83333 371.833,6.16667 378.5,5.5 Z"/></g>
<g><path style="opacity:0.004" fill="#7655fd" d="M 341.5,6.5 C 341.833,6.5 342.167,6.5 342.5,6.5C 342.5,7.16667 342.833,7.5 343.5,7.5C 343.5,7.83333 343.5,8.16667 343.5,8.5C 342.167,8.5 341.5,7.83333 341.5,6.5 Z"/></g>
<g><path style="opacity:0.02" fill="#9ffa40" d="M 351.5,8.5 C 353.607,7.53178 355.941,7.19845 358.5,7.5C 358.5,8.16667 358.5,8.83333 358.5,9.5C 357.833,9.5 357.167,9.5 356.5,9.5C 354.784,9.37133 353.117,9.038 351.5,8.5 Z"/></g>
<g><path style="opacity:0.078" fill="#c0d7d7" d="M 358.5,6.5 C 358.5,6.83333 358.5,7.16667 358.5,7.5C 355.941,7.19845 353.607,7.53178 351.5,8.5C 351.5,8.83333 351.5,9.16667 351.5,9.5C 350.126,12.3392 348.126,13.0059 345.5,11.5C 344.391,10.71 343.058,10.21 341.5,10C 342.094,9.53566 342.761,9.36899 343.5,9.5C 348.248,6.72476 353.248,5.72476 358.5,6.5 Z"/></g>
<g><path style="opacity:0.929" fill="#dcd9bf" d="M 378.5,10.5 C 378.5,10.8333 378.5,11.1667 378.5,11.5C 377.903,12.1386 377.07,12.472 376,12.5C 374.624,12.3158 373.791,11.6491 373.5,10.5C 375.167,9.16667 376.833,9.16667 378.5,10.5 Z"/></g>
<g><path style="opacity:0.02" fill="#94f040" d="M 325.5,11.5 C 324.051,13.1644 322.051,13.9977 319.5,14C 321.815,15.3675 321.815,16.2009 319.5,16.5C 316.778,16.0465 314.111,15.3798 311.5,14.5C 313.731,14.1133 316.064,13.9466 318.5,14C 317.263,13.7679 316.263,13.2679 315.5,12.5C 318.802,11.9371 322.135,11.6037 325.5,11.5 Z"/></g>
<g><path style="opacity:0.008" fill="#8ef94f" d="M 430.5,22.5 C 428.847,22.3404 427.514,21.6737 426.5,20.5C 428.709,19.0242 430.042,19.6909 430.5,22.5 Z"/></g>
<g><path style="opacity:0.004" fill="#008cff" d="M 278.5,29.5 C 277.833,28.1667 277.833,28.1667 278.5,29.5 Z"/></g>
<g><path style="opacity:0.004" fill="#a258d5" d="M 281.5,28.5 C 282.167,28.5 282.833,28.5 283.5,28.5C 283.833,29.1667 284.167,29.8333 284.5,30.5C 284.167,30.5 283.833,30.5 283.5,30.5C 282.5,30.1667 281.833,29.5 281.5,28.5 Z"/></g>
<g><path style="opacity:0.016" fill="#f731e6" d="M 439.5,27.5 C 440.167,27.5 440.833,27.5 441.5,27.5C 441.5,28.8333 440.833,29.5 439.5,29.5C 439.5,28.8333 439.5,28.1667 439.5,27.5 Z"/></g>
<g><path style="opacity:0.016" fill="#e4f82d" d="M 281.5,28.5 C 281.833,29.5 282.5,30.1667 283.5,30.5C 283.5,30.8333 283.5,31.1667 283.5,31.5C 282.395,32.6005 281.062,33.2671 279.5,33.5C 277.862,32.2954 277.529,30.9621 278.5,29.5C 279.391,28.8902 280.391,28.5569 281.5,28.5 Z"/></g>
<g><path style="opacity:0.016" fill="#96e557" d="M 441.5,27.5 C 443.781,27.0773 445.448,27.744 446.5,29.5C 440.642,30.4999 440.308,32.3333 445.5,35C 444.874,35.7504 444.374,36.5838 444,37.5C 442.363,35.1898 440.196,33.6898 437.5,33C 438.823,32.1841 439.489,31.0174 439.5,29.5C 440.833,29.5 441.5,28.8333 441.5,27.5 Z"/></g>
<g><path style="opacity:0.004" fill="#aea590" d="M 453.5,35.5 C 454.833,36.1667 454.833,36.1667 453.5,35.5 Z"/></g>
<g><path style="opacity:0.259" fill="#e2d7a1" d="M 325.5,11.5 C 326.5,11.5 327.5,11.5 328.5,11.5C 329.988,13.8454 331.988,14.1788 334.5,12.5C 337.807,11.9492 341.14,11.6159 344.5,11.5C 330.336,14.83 316.336,19.33 302.5,25C 298.624,28.2156 294.291,30.549 289.5,32C 286.755,35.7065 283.088,37.8732 278.5,38.5C 277.167,38.8333 277.167,39.1667 278.5,39.5C 277.772,41.7346 276.439,43.5679 274.5,45C 271.333,47.5 268.167,50 265,52.5C 260.101,58.6174 255.434,64.9507 251,71.5C 251.063,68.0539 252.563,65.2206 255.5,63C 254.643,62.3109 253.977,61.4776 253.5,60.5C 255.977,59.12 255.977,58.12 253.5,57.5C 253.5,55.5 253.5,53.5 253.5,51.5C 256.062,52.3715 258.728,52.3715 261.5,51.5C 261.739,49.5328 261.406,47.6995 260.5,46C 261.167,45.3333 261.833,44.6667 262.5,44C 264.764,43.7638 266.931,43.2638 269,42.5C 269,40.5 269,38.5 269,36.5C 271,35.1667 273,35.1667 275,36.5C 276.652,35.6006 278.152,34.6006 279.5,33.5C 281.062,33.2671 282.395,32.6005 283.5,31.5C 284.222,31.9175 284.722,32.5842 285,33.5C 285.74,32.2506 285.573,31.2506 284.5,30.5C 284.167,29.8333 283.833,29.1667 283.5,28.5C 286.393,27.477 289.226,27.477 292,28.5C 292.218,25.5738 292.718,22.7405 293.5,20C 299.701,21.0534 305.701,20.3867 311.5,18C 310.376,17.7508 309.376,17.2508 308.5,16.5C 309.246,15.2638 309.579,13.9305 309.5,12.5C 311.5,12.5 313.5,12.5 315.5,12.5C 316.263,13.2679 317.263,13.7679 318.5,14C 316.064,13.9466 313.731,14.1133 311.5,14.5C 314.111,15.3798 316.778,16.0465 319.5,16.5C 321.815,16.2009 321.815,15.3675 319.5,14C 322.051,13.9977 324.051,13.1644 325.5,11.5 Z"/></g>
<g><path style="opacity:0.012" fill="#b4fe1a" d="M 328.5,11.5 C 330.735,11.2053 332.735,11.5386 334.5,12.5C 331.988,14.1788 329.988,13.8454 328.5,11.5 Z"/></g>
<g><path style="opacity:1" fill="#fffbf9" d="M 133.5,50.5 C 138.4,51.9747 143.4,52.9747 148.5,53.5C 148.067,62.4477 146.4,71.1144 143.5,79.5C 147.443,80.4855 151.443,81.1522 155.5,81.5C 157.166,73.8343 158.999,66.1676 161,58.5C 161.561,57.9781 162.228,57.6448 163,57.5C 167.353,59.2137 171.853,60.2137 176.5,60.5C 174.335,69.1527 172.501,77.8194 171,86.5C 181.559,89.7323 190.559,95.399 198,103.5C 204.077,118.024 201.244,130.524 189.5,141C 187.5,142 185.5,143 183.5,144C 199.379,154.092 202.879,167.592 194,184.5C 188.531,195.996 179.364,202.163 166.5,203C 158.098,203.638 149.764,203.138 141.5,201.5C 139.674,209.805 138.007,218.138 136.5,226.5C 131.224,225.556 126.057,224.223 121,222.5C 121.631,214.726 123.131,207.059 125.5,199.5C 122.634,195.882 118.967,194.882 114.5,196.5C 112.292,203.789 110.292,211.122 108.5,218.5C 103.43,218.315 98.4295,217.648 93.5,216.5C 94.2353,207.149 96.2353,198.149 99.5,189.5C 88.7822,188.404 78.4489,185.904 68.5,182C 70.9264,176.893 73.2597,171.726 75.5,166.5C 76.5,166.167 77.5,165.833 78.5,165.5C 81.8333,166.167 85.1667,166.833 88.5,167.5C 90.299,167.423 91.9656,166.923 93.5,166C 94.1895,162.053 95.3562,158.22 97,154.5C 101.298,135.286 105.798,116.119 110.5,97C 111.209,93.0652 109.876,90.0652 106.5,88C 102.312,86.3693 97.9788,85.5359 93.5,85.5C 94.0297,79.7224 95.0297,74.0557 96.5,68.5C 107.157,70.829 117.824,73.1623 128.5,75.5C 129.372,67.0101 131.039,58.6768 133.5,50.5 Z"/></g>
<g><path style="opacity:0.075" fill="#e2e4bb" d="M 426.5,20.5 C 427.514,21.6737 428.847,22.3404 430.5,22.5C 430.714,24.1439 430.38,25.6439 429.5,27C 432.867,28.0541 436.2,28.2208 439.5,27.5C 439.5,28.1667 439.5,28.8333 439.5,29.5C 439.489,31.0174 438.823,32.1841 437.5,33C 440.196,33.6898 442.363,35.1898 444,37.5C 444.374,36.5838 444.874,35.7504 445.5,35C 440.308,32.3333 440.642,30.4999 446.5,29.5C 446.5,31.5 446.5,33.5 446.5,35.5C 448.861,35.6741 451.194,36.0074 453.5,36.5C 454.369,38.717 454.702,41.0504 454.5,43.5C 457.167,44.8333 459.833,44.8333 462.5,43.5C 461.167,46.1667 461.167,48.8333 462.5,51.5C 464.92,51.2924 467.253,51.6258 469.5,52.5C 470.739,54.0072 470.405,55.1739 468.5,56C 469.308,56.3076 469.975,56.8076 470.5,57.5C 469.674,58.451 469.508,59.451 470,60.5C 472.667,59.1667 475.333,59.1667 478,60.5C 478.024,65.1002 477.858,69.7669 477.5,74.5C 480.075,74.1086 482.575,74.7753 485,76.5C 486.664,78.7856 486.83,81.1189 485.5,83.5C 484.167,84.5 484.167,85.5 485.5,86.5C 486.686,87.7054 486.686,89.0387 485.5,90.5C 484.624,90.6309 483.957,90.2975 483.5,89.5C 468.912,59.4112 446.578,37.2445 416.5,23C 406.224,19.4244 396.558,15.9244 387.5,12.5C 396.176,11.9941 404.843,11.8274 413.5,12C 413.665,13.8366 414.332,15.8366 415.5,18C 414.833,18.6667 414.167,19.3333 413.5,20C 417.688,19.4873 422.021,19.6539 426.5,20.5 Z"/></g>
<g><path style="opacity:1" fill="#fdfbf8" d="M 377.5,55.5 C 379.167,55.5 380.833,55.5 382.5,55.5C 378.089,67.3413 373.923,79.3413 370,91.5C 366.184,100.629 362.184,109.629 358,118.5C 357.333,120.167 357.333,121.833 358,123.5C 380.761,124.328 403.594,124.828 426.5,125C 427.022,125.561 427.355,126.228 427.5,127C 396.054,162.054 364.72,197.221 333.5,232.5C 332.675,233.386 331.675,233.719 330.5,233.5C 330.337,231.143 330.503,228.81 331,226.5C 341.698,203.683 352.365,181.016 363,158.5C 363.497,156.19 363.663,153.857 363.5,151.5C 341.167,151.5 318.833,151.5 296.5,151.5C 296.337,149.143 296.503,146.81 297,144.5C 324.04,114.963 350.874,85.2961 377.5,55.5 Z"/></g>
<g><path style="opacity:0.02" fill="#df73e4" d="M 485.5,83.5 C 486.833,84.5 486.833,85.5 485.5,86.5C 484.167,85.5 484.167,84.5 485.5,83.5 Z"/></g>
<g><path style="opacity:0.773" fill="#ded5b3" d="M 485.5,91.5 C 488.167,91.5 490.833,91.5 493.5,91.5C 493.303,99.2743 493.303,106.941 493.5,114.5C 492.503,114.53 491.836,114.03 491.5,113C 489.414,105.819 487.414,98.652 485.5,91.5 Z"/></g>
<g><path style="opacity:1" fill="#f79420" d="M 139.5,97.5 C 150.176,98.8899 159.843,102.723 168.5,109C 171.424,115.23 171.091,121.23 167.5,127C 165.725,128.439 163.725,129.439 161.5,130C 151.63,131.14 141.964,130.306 132.5,127.5C 133.657,117.2 135.99,107.2 139.5,97.5 Z"/></g>
<g><path style="opacity:0.106" fill="#abc5b0" d="M 496.5,118.5 C 497.105,120.481 498.105,120.815 499.5,119.5C 499.5,120.167 499.5,120.833 499.5,121.5C 495.714,122.695 495.714,123.362 499.5,123.5C 499.5,125.833 499.5,128.167 499.5,130.5C 498.167,130.833 498.167,131.167 499.5,131.5C 499.5,141.167 499.5,150.833 499.5,160.5C 497.856,154.664 497.523,148.664 498.5,142.5C 498.5,142.167 498.5,141.833 498.5,141.5C 498.247,137.96 497.581,134.627 496.5,131.5C 496.664,128.577 495.664,125.744 493.5,123C 493.698,120.815 494.698,119.315 496.5,118.5 Z"/></g>
<g><path style="opacity:0.02" fill="#e56ae5" d="M 496.5,131.5 C 497.581,134.627 498.247,137.96 498.5,141.5C 498.167,141.5 497.833,141.5 497.5,141.5C 497.5,140.833 497.167,140.5 496.5,140.5C 496.5,137.5 496.5,134.5 496.5,131.5 Z"/></g>
<g><path style="opacity:1" fill="#f7931d" d="M 127.5,143.5 C 138.845,144.893 149.512,148.393 159.5,154C 168.474,161.587 168.807,169.587 160.5,178C 152.707,180.482 144.707,181.149 136.5,180C 131.435,179.076 126.435,177.909 121.5,176.5C 121.167,175.667 120.833,174.833 120.5,174C 122.519,163.735 124.852,153.568 127.5,143.5 Z"/></g>
<g><path style="opacity:0.106" fill="#d3cdd0" d="M 496.5,153.5 C 497.762,159.037 497.762,164.703 496.5,170.5C 492.983,168.39 492.649,165.723 495.5,162.5C 494.13,159.289 494.463,156.289 496.5,153.5 Z"/></g>
<g><path style="opacity:0.004" fill="#80ec53" d="M 496.5,140.5 C 497.167,140.5 497.5,140.833 497.5,141.5C 497.5,142.167 497.833,142.5 498.5,142.5C 497.523,148.664 497.856,154.664 499.5,160.5C 499.5,163.833 499.5,167.167 499.5,170.5C 498.5,170.5 497.5,170.5 496.5,170.5C 497.762,164.703 497.762,159.037 496.5,153.5C 496.5,149.167 496.5,144.833 496.5,140.5 Z"/></g>
<g><path style="opacity:0.008" fill="#d285df" d="M 496.5,170.5 C 497.5,170.5 498.5,170.5 499.5,170.5C 499.5,171.167 499.5,171.833 499.5,172.5C 498.5,171.167 497.5,171.167 496.5,172.5C 496.5,171.833 496.5,171.167 496.5,170.5 Z"/></g>
<g><path style="opacity:0.027" fill="#bce96e" d="M 493.5,184.5 C 493.682,186.591 493.348,188.591 492.5,190.5C 495.894,196.795 493.894,199.128 486.5,197.5C 487.694,196.728 488.694,195.728 489.5,194.5C 490.167,194.5 490.5,194.167 490.5,193.5C 488.958,189.691 489.958,186.691 493.5,184.5 Z"/></g>
<g><path style="opacity:0.208" fill="#e2daae" d="M 493.5,174.5 C 494.368,177.731 494.368,181.065 493.5,184.5C 489.958,186.691 488.958,189.691 490.5,193.5C 489.833,193.5 489.5,193.833 489.5,194.5C 488.694,195.728 487.694,196.728 486.5,197.5C 485.189,202.144 485.189,206.811 486.5,211.5C 483.397,212.704 480.397,214.204 477.5,216C 477.463,220.532 477.797,225.032 478.5,229.5C 475.475,229.123 472.475,228.956 469.5,229C 470.166,231.33 470.166,233.83 469.5,236.5C 466.889,237.351 464.223,237.518 461.5,237C 462.345,238.922 462.345,241.088 461.5,243.5C 460.833,243.5 460.5,243.833 460.5,244.5C 458.042,245.623 455.875,245.623 454,244.5C 454.697,247.19 454.53,249.857 453.5,252.5C 450.949,253.29 448.616,253.29 446.5,252.5C 446.407,253.472 446.074,254.472 445.5,255.5C 442.68,255.248 440.014,255.748 437.5,257C 438.899,257.595 440.232,257.428 441.5,256.5C 442.85,257.95 444.516,258.617 446.5,258.5C 446.5,259.5 446.5,260.5 446.5,261.5C 442.002,260.854 437.502,260.521 433,260.5C 432.586,260.957 432.086,261.291 431.5,261.5C 430.786,264.027 430.12,266.527 429.5,269C 424.687,268.292 420.021,268.458 415.5,269.5C 414.231,271.695 414.231,273.861 415.5,276C 414.892,276.87 414.059,277.37 413,277.5C 408.273,277.832 403.607,277.165 399,275.5C 396.619,276.435 394.119,276.768 391.5,276.5C 391.62,275.414 392.287,274.747 393.5,274.5C 395.41,273.452 397.244,273.452 399,274.5C 447.256,256.751 478.756,223.417 493.5,174.5 Z"/></g>
<g><path style="opacity:0.004" fill="#894bfd" d="M 469.5,236.5 C 470.833,237.167 470.833,237.167 469.5,236.5 Z"/></g>
<g><path style="opacity:0.106" fill="#e5deb3" d="M 307.5,268.5 C 302.525,270.063 297.691,269.729 293,267.5C 292.667,265.167 292.333,262.833 292,260.5C 287.218,261.802 282.385,261.802 277.5,260.5C 278.668,259.094 278.335,257.928 276.5,257C 278.947,255.771 279.113,254.271 277,252.5C 274.619,253.435 272.119,253.768 269.5,253.5C 268.167,250.833 268.167,248.167 269.5,245.5C 266.724,244.886 264.057,244.719 261.5,245C 261.434,242.891 261.101,240.725 260.5,238.5C 258.345,237.072 256.179,236.739 254,237.5C 253.122,234.356 252.955,231.356 253.5,228.5C 252.174,225.999 251.674,223.332 252,220.5C 266.292,240.471 284.458,255.638 306.5,266C 307.252,266.671 307.586,267.504 307.5,268.5 Z"/></g>
<g><path style="opacity:0.004" fill="#fd52fd" d="M 461.5,243.5 C 462.833,244.167 462.833,244.167 461.5,243.5 Z"/></g>
<g><path style="opacity:0.004" fill="#fd4afe" d="M 460.5,244.5 C 460.833,244.5 461.167,244.5 461.5,244.5C 461.315,245.17 460.981,245.17 460.5,244.5 Z"/></g>
<g><path style="opacity:0.004" fill="#a250fe" d="M 453.5,252.5 C 454.833,253.167 454.833,253.167 453.5,252.5 Z"/></g>
<g><path style="opacity:0.016" fill="#9bf751" d="M 445.5,255.5 C 446.11,256.391 446.443,257.391 446.5,258.5C 444.516,258.617 442.85,257.95 441.5,256.5C 440.232,257.428 438.899,257.595 437.5,257C 440.014,255.748 442.68,255.248 445.5,255.5 Z"/></g>
<g><path style="opacity:0.329" fill="#d9d6bd" d="M 336.5,277.5 C 330.285,276.514 323.951,276.514 317.5,277.5C 316.375,274.872 314.375,274.039 311.5,275C 312.056,275.383 312.389,275.883 312.5,276.5C 311.312,277.684 310.145,277.684 309,276.5C 309.574,274.224 309.408,271.891 308.5,269.5C 309.265,269.077 310.098,268.743 311,268.5C 318.684,271.339 326.518,273.673 334.5,275.5C 335.713,275.747 336.38,276.414 336.5,277.5 Z"/></g>
<g><path style="opacity:0.014" fill="#44f62d" d="M 317.5,277.5 C 315.784,277.371 314.117,277.038 312.5,276.5C 312.389,275.883 312.056,275.383 311.5,275C 314.375,274.039 316.375,274.872 317.5,277.5 Z"/></g>
<g><path style="opacity:0.086" fill="#ecd3c2" d="M 385.5,277.5 C 385.842,278.338 386.508,278.672 387.5,278.5C 387.5,279.167 387.5,279.833 387.5,280.5C 383.833,280.5 380.167,280.5 376.5,280.5C 375.833,279.167 375.167,279.167 374.5,280.5C 373.833,280.5 373.167,280.5 372.5,280.5C 372.158,279.662 371.492,279.328 370.5,279.5C 371.334,278.252 372.667,277.585 374.5,277.5C 378.434,278.236 382.101,278.236 385.5,277.5 Z"/></g>
<g><path style="opacity:0.004" fill="#feff00" d="M 333.5,280.5 C 334.167,279.167 334.833,279.167 335.5,280.5C 334.833,280.5 334.167,280.5 333.5,280.5 Z"/></g>
<g><path style="opacity:0.008" fill="#bcc79b" d="M 343.5,280.5 C 341.167,280.5 338.833,280.5 336.5,280.5C 336.5,279.5 336.5,278.5 336.5,277.5C 336.833,277.5 337.167,277.5 337.5,277.5C 337.833,278.833 338.167,278.833 338.5,277.5C 341.339,276.094 343.006,277.094 343.5,280.5 Z"/></g>
</svg>
