<?xml version="1.0" standalone="yes"?>
<svg xmlns="http://www.w3.org/2000/svg" width="2048" height="2048">
<path style="fill:#010101; stroke:none;" d="M0 0L0 2048L2048 2048L2048 0L0 0z"/>
<path style="fill:#f7931b; stroke:none;" d="M988 51.4244C969.578 53.843 950.552 53.3745 932 55.1698C881.185 60.0873 830.394 68.8972 781 81.8843C591.315 131.758 419.271 238.143 290.285 386C211.152 476.712 150.925 581.409 108.95 694C74.0321 787.66 58.6973 884.893 51.9105 984C26.1427 1360.28 250.873 1726.83 582 1897.74C759.463 1989.34 963.799 2021.65 1161 1995.72C1370.51 1968.17 1569.74 1868.23 1718.99 1718.99C1902.16 1535.81 2008.08 1279.15 2005 1020C2003.28 875.903 1970.63 731.971 1907.74 602C1785.82 350.021 1555.17 158.023 1285 84.8488C1215.3 65.9711 1144.02 55.1147 1072 51.9607C1044.87 50.7725 1015.03 47.8759 988 51.4244z"/>
<path style="fill:#ffff01; stroke:none;" d="M1114 54L1115 55L1114 54M1186 63L1187 64L1186 63M851 66L852 67L851 66M1214 68L1215 69L1214 68M1294 87L1295 88L1294 87M1311 92L1312 93L1311 92M1345 103L1346 104L1345 103M1362 109L1363 110L1362 109M1370 112L1371 113L1370 112M1398 123L1399 124L1398 123M642 129L643 130L642 129M1437 140L1438 141L1437 140M1458 150L1459 151L1458 150M1460 151L1461 152L1460 151M1462 152L1463 153L1462 152M1464 153L1465 154L1464 153M1466 154L1467 155L1466 154M1468 155L1469 156L1468 155M569 164L570 165L569 164M1491 167L1492 168L1491 167M1509 177L1510 178L1509 177M499 205L500 206L499 205M1566 212L1567 213L1566 212M475 221L476 222L475 221M462 230L463 231L462 230M451 238L452 239L451 238M431 253L432 254L431 253M422 260L423 261L422 260M417 264L418 265L417 264M1646 271L1647 272L1646 271M394 283L395 284L394 283M369 305L370 306L369 305M355 318L356 319L355 318M318 355L319 356L318 355z"/>
<path style="fill:#fbc27c; stroke:none;" d="M1138 383C1146.44 377.153 1168.58 371.862 1178 379C1179.7 374.481 1169.75 376 1167 376C1156.47 376 1144.63 373.212 1138 383z"/>
<path style="fill:#ffffff; stroke:none;" d="M550 1074L923 1074L1011 1074C1016.82 1074 1036.67 1070.91 1039.4 1077.15C1042.2 1083.57 1040 1095.04 1040 1102C1040 1119.72 1033.97 1131.06 1026.86 1147C1018.33 1166.13 1009.38 1185.14 1000.26 1204C949 1309.95 902.981 1418.52 850.752 1524C835.735 1554.33 822.769 1585.67 807.752 1616C797.295 1637.12 787.641 1657.87 806 1678L807 1678L876.169 1601L1024.17 1436L1505 900L1505 899C1500.58 894.369 1496.32 879.973 1491.57 877.603C1484.59 874.118 1469.78 877 1462 877L1389 877L1119 877L1035 877C1023.64 877 1009.25 879.176 1000.19 870.671C988.193 859.419 995.552 846.437 1000.85 834C1013.15 805.127 1025.14 776.139 1036.8 747C1068.79 667.026 1098.71 586.309 1129.81 506C1140.88 477.412 1151.52 448.654 1162.42 420C1167.62 406.338 1175.83 391.473 1178 377C1168.71 377 1152.37 373.844 1144 378.028C1138.63 380.714 1134.89 386.703 1130.91 391C1121.1 401.588 1111.26 412.173 1101.71 423C1073.74 454.724 1045.12 486.354 1015.96 517C963.457 572.187 912.926 629.506 861.83 686C796.465 758.271 729.156 828.906 664.714 902C637.567 932.792 608.862 962.208 581.714 993C572.677 1003.25 555.992 1015.32 550.858 1028C545.976 1040.06 550 1061 550 1074z"/>
<path style="fill:#fbc27c; stroke:none;" d="M1177 380L1178 381L1177 380M1176 383L1177 384L1176 383M1175.33 385.667L1175.67 386.333L1175.33 385.667M1133 388L1134 389L1133 388M1174 388L1175 389L1174 388M1132 389L1133 390L1132 389M1131 390L1132 391L1131 390M1130 391L1131 392L1130 391M1173 391L1174 392L1173 391M1129 392L1130 393L1129 392M1128 393L1129 394L1128 393M1172.33 393.667L1172.67 394.333L1172.33 393.667z"/>
<path style="fill:#ffff01; stroke:none;" d="M283 394L284 395L283 394z"/>
<path style="fill:#fbc27c; stroke:none;" d="M1171 396L1172 397L1171 396z"/>
<path style="fill:#ffff01; stroke:none;" d="M1773 396L1774 397L1773 396z"/>
<path style="fill:#fbc27c; stroke:none;" d="M1170.33 398.667L1170.67 399.333L1170.33 398.667M1123 399L1124 400L1123 399M1122 400L1123 401L1122 400M1121 401L1122 402L1121 401M1169 401L1170 402L1169 401M1120 402L1121 403L1120 402M1119 403L1120 404L1119 403M1118 404L1119 405L1118 404M1168 404L1169 405L1168 404M1117 405L1118 406L1117 405M1167.33 406.667L1167.67 407.333L1167.33 406.667M1166 409L1167 410L1166 409M1112 411L1113 412L1112 411M1111 412L1112 413L1111 412M1165 412L1166 413L1165 412M1110 413L1111 414L1110 413M1109 414L1110 415L1109 414M1164 414L1165 415L1164 414M1108 415L1109 416L1108 415M1107 416L1108 417L1107 416z"/>
<path style="fill:#ffff01; stroke:none;" d="M264 417L265 418L264 417z"/>
<path style="fill:#fbc27c; stroke:none;" d="M1163 417L1164 418L1163 417M1162.33 419.667L1162.67 420.333L1162.33 419.667M1102 422L1103 423L1102 422M1161 422L1162 423L1161 422M1101 423L1102 424L1101 423M1100 424L1101 425L1100 424M1099 425L1100 426L1099 425M1160 425L1161 426L1160 425M1098 426L1099 427L1098 426M1097 427L1098 428L1097 427M1159.33 427.667L1159.67 428.333L1159.33 427.667M1096 428L1097 429L1096 428z"/>
<path style="fill:#ffff01; stroke:none;" d="M1799 428L1800 429L1799 428z"/>
<path style="fill:#fbc27c; stroke:none;" d="M1158 430L1159 431L1158 430z"/>
<path style="fill:#ffff01; stroke:none;" d="M253 431L254 432L253 431z"/>
<path style="fill:#fbc27c; stroke:none;" d="M1157.33 432.667L1157.67 433.333L1157.33 432.667M1091 434L1092 435L1091 434M1090 435L1091 436L1090 435M1156 435L1157 436L1156 435M1089 436L1090 437L1089 436M1088 437L1089 438L1088 437M1087 438L1088 439L1087 438M1155 438L1156 439L1155 438M1086 439L1087 440L1086 439M1154.33 440.667L1154.67 441.333L1154.33 440.667M1153 443L1154 444L1153 443M1081 445L1082 446L1081 445M1080 446L1081 447L1080 446M1152 446L1153 447L1152 446M1079 447L1080 448L1079 447M1078 448L1079 449L1078 448M1151.33 448.667L1151.67 449.333L1151.33 448.667M1077 449L1078 450L1077 449M1076 450L1077 451L1076 450z"/>
<path style="fill:#ffff01; stroke:none;" d="M238 451L239 452L238 451z"/>
<path style="fill:#fbc27c; stroke:none;" d="M1150 451L1151 452L1150 451M1149 454L1150 455L1149 454M1071 456L1072 457L1071 456M1148.33 456.667L1148.67 457.333L1148.33 456.667M1070 457L1071 458L1070 457M1069 458L1070 459L1069 458M1068 459L1069 460L1068 459M1147 459L1148 460L1147 459M1067 460L1068 461L1067 460M1066 461L1067 462L1066 461M1065 462L1066 463L1065 462M1146 462L1147 463L1146 462z"/>
<path style="fill:#ffff01; stroke:none;" d="M1825 463L1826 464L1825 463z"/>
<path style="fill:#fbc27c; stroke:none;" d="M1145 464L1146 465L1145 464M1144 467L1145 468L1144 467M1060 468L1061 469L1060 468M1059 469L1060 470L1059 469M1143.33 469.667L1143.67 470.333L1143.33 469.667M1058 470L1059 471L1058 470M1057 471L1058 472L1057 471M1056 472L1057 473L1056 472M1142 472L1143 473L1142 472M1055 473L1056 474L1055 473M1141 475L1142 476L1141 475M1140.33 477.667L1140.67 478.333L1140.33 477.667M1050 479L1051 480L1050 479M1049 480L1050 481L1049 480M1139 480L1140 481L1139 480M1048 481L1049 482L1048 481M1047 482L1048 483L1047 482M1046 483L1047 484L1046 483M1138 483L1139 484L1138 483M1045 484L1046 485L1045 484M1137.33 485.667L1137.67 486.333L1137.33 485.667M1136 488L1137 489L1136 488M1039 491L1040 492L1039 491M1135 491L1136 492L1135 491M1038 492L1039 493L1038 492M1037 493L1038 494L1037 493M1134.33 493.667L1134.67 494.333L1134.33 493.667M1036 494L1037 495L1036 494M1035 495L1036 496L1035 495M1034 496L1035 497L1034 496M1133 496L1134 497L1133 496z"/>
<path style="fill:#ffff01; stroke:none;" d="M1848 497L1849 498L1848 497z"/>
<path style="fill:#fbc27c; stroke:none;" d="M1132 499L1133 500L1132 499z"/>
<path style="fill:#ffff01; stroke:none;" d="M1850 500L1851 501L1850 500z"/>
<path style="fill:#fbc27c; stroke:none;" d="M1131.33 501.667L1131.67 502.333L1131.33 501.667M1029 502L1030 503L1029 502M1028 503L1029 504L1028 503M1027 504L1028 505L1027 504M1130 504L1131 505L1130 504M1026 505L1027 506L1026 505M1025 506L1026 507L1025 506M1129.33 506.667L1129.67 507.333L1129.33 506.667M1024 507L1025 508L1024 507z"/>
<path style="fill:#ffff01; stroke:none;" d="M1855 508L1856 509L1855 508z"/>
<path style="fill:#fbc27c; stroke:none;" d="M1128 509L1129 510L1128 509M1127 512L1128 513L1127 512M1019 513L1020 514L1019 513M1018 514L1019 515L1018 514M1126.33 514.667L1126.67 515.333L1126.33 514.667M1017 515L1018 516L1017 515M1016 516L1017 517L1016 516z"/>
<path style="fill:#ffff01; stroke:none;" d="M1860 516L1861 517L1860 516z"/>
<path style="fill:#fbc27c; stroke:none;" d="M1015 517L1016 518L1015 517M1125 517L1126 518L1125 517M1014 518L1015 519L1014 518M1013 519L1014 520L1013 519M1124 520L1125 521L1124 520M1123.33 522.667L1123.67 523.333L1123.33 522.667M1008 525L1009 526L1008 525M1122 525L1123 526L1122 525M1007 526L1008 527L1007 526M1006 527L1007 528L1006 527M1005 528L1006 529L1005 528M1121 528L1122 529L1121 528M1004 529L1005 530L1004 529M1003 530L1004 531L1003 530M1120.33 530.667L1120.67 531.333L1120.33 530.667z"/>
<path style="fill:#ffff01; stroke:none;" d="M1869 531L1870 532L1869 531z"/>
<path style="fill:#fbc27c; stroke:none;" d="M1119 533L1120 534L1119 533M998 536L999 537L998 536M1118 536L1119 537L1118 536M997 537L998 538L997 537M996 538L997 539L996 538M1117.33 538.667L1117.67 539.333L1117.33 538.667M995 539L996 540L995 539M994 540L995 541L994 540M993 541L994 542L993 541M1116 541L1117 542L1116 541M1115 544L1116 545L1115 544M1114.33 546.667L1114.67 547.333L1114.33 546.667M987 548L988 549L987 548M986 549L987 550L986 549M1113 549L1114 550L1113 549M985 550L986 551L985 550M984 551L985 552L984 551M1112.33 551.667L1112.67 552.333L1112.33 551.667M983 552L984 553L983 552M982 553L983 554L982 553M1111 554L1112 555L1111 554M1110 557L1111 558L1110 557M977 559L978 560L977 559M1109.33 559.667L1109.67 560.333L1109.33 559.667M976 560L977 561L976 560M975 561L976 562L975 561M974 562L975 563L974 562M1108 562L1109 563L1108 562M973 563L974 564L973 563M972 564L973 565L972 564M1107 565L1108 566L1107 565M1106.33 567.667L1106.67 568.333L1106.33 567.667z"/>
<path style="fill:#ffff01; stroke:none;" d="M164 569L165 570L164 569z"/>
<path style="fill:#fbc27c; stroke:none;" d="M967 570L968 571L967 570M1105 570L1106 571L1105 570M966 571L967 572L966 571M965 572L966 573L965 572M964 573L965 574L964 573M1104 573L1105 574L1104 573M963 574L964 575L963 574M962 575L963 576L962 575M1103 575L1104 576L1103 575M961 576L962 577L961 576z"/>
<path style="fill:#ffff01; stroke:none;" d="M1894 576L1895 577L1894 576z"/>
<path style="fill:#fbc27c; stroke:none;" d="M1102 578L1103 579L1102 578M1101.33 580.667L1101.67 581.333L1101.33 580.667M956 582L957 583L956 582M955 583L956 584L955 583M1100 583L1101 584L1100 583M954 584L955 585L954 584M953 585L954 586L953 585M952 586L953 587L952 586M1099 586L1100 587L1099 586M951 587L952 588L951 587M1098.33 588.667L1098.67 589.333L1098.33 588.667M1097 591L1098 592L1097 591M946 593L947 594L946 593M945 594L946 595L945 594M1096 594L1097 595L1096 594M944 595L945 596L944 595M943 596L944 597L943 596M1095.33 596.667L1095.67 597.333L1095.33 596.667M942 597L943 598L942 597M941 598L942 599L941 598M1094 599L1095 600L1094 599M1093.33 601.667L1093.67 602.333L1093.33 601.667M936 604L937 605L936 604M1092 604L1093 605L1092 604M935 605L936 606L935 605M934 606L935 607L934 606M933 607L934 608L933 607M1091 607L1092 608L1091 607M932 608L933 609L932 608M931 609L932 610L931 609M1090.33 609.667L1090.67 610.333L1090.33 609.667M930 610L931 611L930 610M1089 612L1090 613L1089 612M1088 615L1089 616L1088 615M925 616L926 617L925 616M924 617L925 618L924 617M1087 617L1088 618L1087 617M923 618L924 619L923 618M922 619L923 620L922 619M921 620L922 621L921 620M1086 620L1087 621L1086 620M920 621L921 622L920 621M1085.33 622.667L1085.67 623.333L1085.33 622.667M1084 625L1085 626L1084 625z"/>
<path style="fill:#ffff01; stroke:none;" d="M136 626L137 627L136 626z"/>
<path style="fill:#fbc27c; stroke:none;" d="M915 627L916 628L915 627M914 628L915 629L914 628M1083 628L1084 629L1083 628M913 629L914 630L913 629M912 630L913 631L912 630M1082 630L1083 631L1082 630M911 631L912 632L911 631M910 632L911 633L910 632M909 633L910 634L909 633M1081 633L1082 634L1081 633M1080.33 635.667L1080.67 636.333L1080.33 635.667M1079 638L1080 639L1079 638M904 639L905 640L904 639M903 640L904 641L903 640M902 641L903 642L902 641M1078 641L1079 642L1078 641z"/>
<path style="fill:#ffff01; stroke:none;" d="M129 642L130 643L129 642z"/>
<path style="fill:#fbc27c; stroke:none;" d="M901 642L902 643L901 642M900 643L901 644L900 643M1077 643L1078 644L1077 643M899 644L900 645L899 644M1076 646L1077 647L1076 646M1075.33 648.667L1075.67 649.333L1075.33 648.667z"/>
<path style="fill:#ffff01; stroke:none;" d="M126 649L127 650L126 649z"/>
<path style="fill:#fbc27c; stroke:none;" d="M894 650L895 651L894 650M893 651L894 652L893 651M1074 651L1075 652L1074 651M892 652L893 653L892 652M891 653L892 654L891 653M1073.33 653.667L1073.67 654.333L1073.33 653.667M890 654L891 655L890 654M889 655L890 656L889 655M1072 656L1073 657L1072 656z"/>
<path style="fill:#ffff01; stroke:none;" d="M1932 658L1933 659L1932 658z"/>
<path style="fill:#fbc27c; stroke:none;" d="M1071 659L1072 660L1071 659M884 661L885 662L884 661M1070.33 661.667L1070.67 662.333L1070.33 661.667M883 662L884 663L883 662M882 663L883 664L882 663M881 664L882 665L881 664M1069 664L1070 665L1069 664M880 665L881 666L880 665M879 666L880 667L879 666M1068.33 666.667L1068.67 667.333L1068.33 666.667M878 667L879 668L878 667M1067 669L1068 670L1067 669M1066 672L1067 673L1066 672M873 673L874 674L873 673z"/>
<path style="fill:#ffff01; stroke:none;" d="M1938 673L1939 674L1938 673z"/>
<path style="fill:#fbc27c; stroke:none;" d="M872 674L873 675L872 674M1065 674L1066 675L1065 674M871 675L872 676L871 675M870 676L871 677L870 676M869 677L870 678L869 677M1064 677L1065 678L1064 677M868 678L869 679L868 678M1063 679L1064 680L1063 679M1062 682L1063 683L1062 682M863 684L864 685L863 684M1061.33 684.667L1061.67 685.333L1061.33 684.667M862 685L863 686L862 685M861 686L862 687L861 686z"/>
<path style="fill:#ffff01; stroke:none;" d="M111 687L112 688L111 687z"/>
<path style="fill:#fbc27c; stroke:none;" d="M860 687L861 688L860 687M1060 687L1061 688L1060 687M859 688L860 689L859 688M858 689L859 690L858 689M1059.33 689.667L1059.67 690.333L1059.33 689.667M1058 692L1059 693L1058 692M1057.33 694.667L1057.67 695.333L1057.33 694.667M852 696L853 697L852 696M851 697L852 698L851 697M1056 697L1057 698L1056 697M850 698L851 699L850 698M849 699L850 700L849 699M1055.33 699.667L1055.67 700.333L1055.33 699.667M848 700L849 701L848 700z"/>
<path style="fill:#ffff01; stroke:none;" d="M1948 700L1949 701L1948 700z"/>
<path style="fill:#fbc27c; stroke:none;" d="M847 701L848 702L847 701M1054 702L1055 703L1054 702M1053 705L1054 706L1053 705M842 707L843 708L842 707M1052 707L1053 708L1052 707M841 708L842 709L841 708M840 709L841 710L840 709M839 710L840 711L839 710M1051 710L1052 711L1051 710M838 711L839 712L838 711M837 712L838 713L837 712M1050 712L1051 713L1050 712M1049 715L1050 716L1049 715M1048 717L1049 718L1048 717M832 718L833 719L832 718M831 719L832 720L831 719M830 720L831 721L830 720M1047 720L1048 721L1047 720M829 721L830 722L829 721M828 722L829 723L828 722M1046.33 722.667L1046.67 723.333L1046.33 722.667M827 723L828 724L827 723M826 724L827 725L826 724M1045 725L1046 726L1045 725M1044.33 727.667L1044.67 728.333L1044.33 727.667M821 730L822 731L821 730M1043 730L1044 731L1043 730M820 731L821 732L820 731M819 732L820 733L819 732M1042.33 732.667L1042.67 733.333L1042.33 732.667M818 733L819 734L818 733M817 734L818 735L817 734M816 735L817 736L816 735M1041 735L1042 736L1041 735M1040.33 737.667L1040.67 738.333L1040.33 737.667M1039 740L1040 741L1039 740M811 741L812 742L811 741M810 742L811 743L810 742M1038.33 742.667L1038.67 743.333L1038.33 742.667M809 743L810 744L809 743M808 744L809 745L808 744M807 745L808 746L807 745M1037 745L1038 746L1037 745M806 746L807 747L806 746M1036.33 747.667L1036.67 748.333L1036.33 747.667M1035 750L1036 751L1035 750M1034.33 752.667L1034.67 753.333L1034.33 752.667M800 753L801 754L800 753M799 754L800 755L799 754M798 755L799 756L798 755M1033 755L1034 756L1033 755M797 756L798 757L797 756M796 757L797 758L796 757M1032 757L1033 758L1032 757M795 758L796 759L795 758M1031 760L1032 761L1031 760M1030 762L1031 763L1030 762M790 764L791 765L790 764M789 765L790 766L789 765M1029 765L1030 766L1029 765M788 766L789 767L788 766M787 767L788 768L787 767M1028 767L1029 768L1028 767M786 768L787 769L786 768M785 769L786 770L785 769M1027 770L1028 771L1027 770M1026 772L1027 773L1026 772M1025.33 774.667L1025.67 775.333L1025.33 774.667M780 775L781 776L780 775M779 776L780 777L779 776M778 777L779 778L778 777M1024 777L1025 778L1024 777M777 778L778 779L777 778M776 779L777 780L776 779M1023.33 779.667L1023.67 780.333L1023.33 779.667M775 780L776 781L775 780M774 781L775 782L774 781M1022 782L1023 783L1022 782M1021 784L1022 785L1021 784M769 787L770 788L769 787M1020 787L1021 788L1020 787M768 788L769 789L768 788M767 789L768 790L767 789M1019 789L1020 790L1019 789M766 790L767 791L766 790M765 791L766 792L765 791M764 792L765 793L764 792M1018 792L1019 793L1018 792M1017 794L1018 795L1017 794M1016.33 796.667L1016.67 797.333L1016.33 796.667M759 798L760 799L759 798M758 799L759 800L758 799M1015 799L1016 800L1015 799M757 800L758 801L757 800M756 801L757 802L756 801M1014 801L1015 802L1014 801M755 802L756 803L755 802M754 803L755 804L754 803M1013 804L1014 805L1013 804M1012 806L1013 807L1012 806M1011.33 808.667L1011.67 809.333L1011.33 808.667M749 809L750 810L749 809M748 810L749 811L748 810M747 811L748 812L747 811M1010 811L1011 812L1010 811M746 812L747 813L746 812M745 813L746 814L745 813M1009 813L1010 814L1009 813M744 814L745 815L744 814M743 815L744 816L743 815M1008 816L1009 817L1008 816M1007 818L1008 819L1007 818M1006.33 820.667L1006.67 821.333L1006.33 820.667M738 821L739 822L738 821M737 822L738 823L737 822M736 823L737 824L736 823M1005 823L1006 824L1005 823M735 824L736 825L735 824z"/>
<path style="fill:#ffff01; stroke:none;" d="M1983 824L1984 825L1983 824z"/>
<path style="fill:#fbc27c; stroke:none;" d="M734 825L735 826L734 825M1004 825L1005 826L1004 825M733 826L734 827L733 826M1003.33 827.667L1003.67 828.333L1003.33 827.667M1002 830L1003 831L1002 830M728 832L729 833L728 832M1001 832L1002 833L1001 832M727 833L728 834L727 833M726 834L727 835L726 834M1000.33 834.667L1000.67 835.333L1000.33 834.667M725 835L726 836L725 835M724 836L725 837L724 836M723 837L724 838L723 837M999 837L1000 838L999 837M722 838L723 839L722 838M998 839L999 840L998 839M997 842L998 843L997 842M717 844L718 845L717 844M996 844L997 845L996 844z"/>
<path style="fill:#ffff01; stroke:none;" d="M1987 844L1988 845L1987 844z"/>
<path style="fill:#fbc27c; stroke:none;" d="M716 845L717 846L716 845M715 846L716 847L715 846M995 846L996 847L995 846M714 847L715 848L714 847M713 848L714 849L713 848M712 849L713 850L712 849M994 849L995 850L994 849z"/>
<path style="fill:#ffff01; stroke:none;" d="M66 851L67 852L66 851z"/>
<path style="fill:#fbc27c; stroke:none;" d="M993 851L994 852L993 851M707 855L708 856L707 855M706 856L707 857L706 856M705 857L706 858L705 857M993 857L993 860L994 860L993 857M704 858L705 859L704 858M703 859L704 860L703 859M702 860L703 861L702 860M994.333 861.667L994.667 862.333L994.333 861.667M995 864L996 865L995 864M697 866L698 867L697 866M996 866L997 867L996 866M696 867L697 868L696 867M695 868L696 869L695 868M694 869L695 870L694 869M998 869L999 870L998 869M693 870L694 871L693 870M999 870L1000 871L999 870M692 871L693 872L692 871M1000 871L1001 872L1000 871M691 872L692 873L691 872M1003 873L1004 874L1003 873M1005 874L1006 875L1005 874M1008.67 875.333L1009.33 875.667L1008.67 875.333M1012 876L1012 877L1493 877C1482.02 872.393 1462.94 876 1451 876L1353 876L1012 876M1493.33 877.667L1493.67 878.333L1493.33 877.667M686 878L687 879L686 878M685 879L686 880L685 879M684 880L685 881L684 880M683 881L684 882L683 881M682 882L683 883L682 882M1494 882L1495 883L1494 882M681 883L682 884L681 883M1495 885L1496 886L1495 885z"/>
<path style="fill:#ffff01; stroke:none;" d="M1994 886L1995 887L1994 886z"/>
<path style="fill:#fbc27c; stroke:none;" d="M1496 887L1497 888L1496 887z"/>
<path style="fill:#ffff01; stroke:none;" d="M60 888L61 889L60 888z"/>
<path style="fill:#fbc27c; stroke:none;" d="M676 889L677 890L676 889M1497 889L1498 890L1497 889M675 890L676 891L675 890M674 891L675 892L674 891M1498 891L1499 892L1498 891M673 892L674 893L673 892M672 893L673 894L672 893M671 894L672 895L671 894M1500 894L1501 895L1500 894M670 895L671 896L670 895M1501 895L1502 896L1501 895M1504 900L1505 901L1504 900M665 901L666 902L665 901M1503 901L1504 902L1503 901M664 902L665 903L664 902M1502 902L1503 903L1502 902M663 903L664 904L663 903M1501 903L1502 904L1501 903M662 904L663 905L662 904M661 905L662 906L661 905M660 906L661 907L660 906M1497 908L1498 909L1497 908M1496 909L1497 910L1496 909M1495 910L1496 911L1495 910M1494 911L1495 912L1494 911M655 912L656 913L655 912M1493 912L1494 913L1493 912M654 913L655 914L654 913M653 914L654 915L653 914M652 915L653 916L652 915M651 916L652 917L651 916M650 917L651 918L650 917M1488 918L1489 919L1488 918M1487 919L1488 920L1487 919z"/>
<path style="fill:#ffff01; stroke:none;" d="M56 920L57 921L56 920z"/>
<path style="fill:#fbc27c; stroke:none;" d="M1486 920L1487 921L1486 920M1485 921L1486 922L1485 921M1484 922L1485 923L1484 922M645 923L646 924L645 923M644 924L645 925L644 924M643 925L644 926L643 925M642 926L643 927L642 926M641 927L642 928L641 927M1480 927L1481 928L1480 927M640 928L641 929L640 928M1479 928L1480 929L1479 928M639 929L640 930L639 929M1478 929L1479 930L1478 929M1477 930L1478 931L1477 930M1476 931L1477 932L1476 931M1475 932L1476 933L1475 932M634 935L635 936L634 935M633 936L634 937L633 936M632 937L633 938L632 937M1471 937L1472 938L1471 937M631 938L632 939L631 938M1470 938L1471 939L1470 938M630 939L631 940L630 939M1469 939L1470 940L1469 939M629 940L630 941L629 940M1468 940L1469 941L1468 940M1467 941L1468 942L1467 941M624 946L625 947L624 946M623 947L624 948L623 947M1462 947L1463 948L1462 947M622 948L623 949L622 948M1461 948L1462 949L1461 948M621 949L622 950L621 949M1460 949L1461 950L1460 949M620 950L621 951L620 950M1459 950L1460 951L1459 950M619 951L620 952L619 951M1458 951L1459 952L1458 951M1454 956L1455 957L1454 956M1453 957L1454 958L1453 957M613 958L614 959L613 958M1452 958L1453 959L1452 958M612 959L613 960L612 959M1451 959L1452 960L1451 959M611 960L612 961L611 960M1450 960L1451 961L1450 960M610 961L611 962L610 961M1449 961L1450 962L1449 961M609 962L610 963L609 962M608 963L609 964L608 963M1445 966L1446 967L1445 966M1444 967L1445 968L1444 967M1443 968L1444 969L1443 968M603 969L604 970L603 969M1442 969L1443 970L1442 969M602 970L603 971L602 970M1441 970L1442 971L1441 970M601 971L602 972L601 971M1440 971L1441 972L1440 971M600 972L601 973L600 972M599 973L600 974L599 973M598 974L599 975L598 974M1436 976L1437 977L1436 976M1435 977L1436 978L1435 977M1434 978L1435 979L1434 978M1433 979L1434 980L1433 979M593 980L594 981L593 980M1432 980L1433 981L1432 980M592 981L593 982L592 981M591 982L592 983L591 982M590 983L591 984L590 983M589 984L590 985L589 984M588 985L589 986L588 985M1428 985L1429 986L1428 985M587 986L588 987L587 986M1427 986L1428 987L1427 986M1426 987L1427 988L1426 987M1425 988L1426 989L1425 988M1424 989L1425 990L1424 989M1423 990L1424 991L1423 990M582 992L583 993L582 992M581 993L582 994L581 993M580 994L581 995L580 994M579 995L580 996L579 995M1419 995L1420 996L1419 995M578 996L579 997L578 996M1418 996L1419 997L1418 996M577 997L578 998L577 997M1417 997L1418 998L1417 997M1416 998L1417 999L1416 998M1415 999L1416 1000L1415 999M1414 1000L1415 1001L1414 1000M572 1003L573 1004L572 1003M571 1004L572 1005L571 1004M570 1005L571 1006L570 1005M1410 1005L1411 1006L1410 1005M569 1006L570 1007L569 1006M1409 1006L1410 1007L1409 1006M568 1007L569 1008L568 1007M1408 1007L1409 1008L1408 1007M567 1008L568 1009L567 1008M1407 1008L1408 1009L1407 1008M1406 1009L1407 1010L1406 1009z"/>
<path style="fill:#ffff01; stroke:none;" d="M2004 1013L2005 1014L2004 1013z"/>
<path style="fill:#fbc27c; stroke:none;" d="M562 1014L563 1015L562 1014M561 1015L562 1016L561 1015M1401 1015L1402 1016L1401 1015M560 1016L561 1017L560 1016M1400 1016L1401 1017L1400 1016M559 1017L560 1018L559 1017M1399 1017L1400 1018L1399 1017M558 1018L559 1019L558 1018M1398 1018L1399 1019L1398 1018M557 1019L558 1020L557 1019M1397 1019L1398 1020L1397 1019M556 1020L557 1021L556 1020M1393 1024L1394 1025L1393 1024M1392 1025L1393 1026L1392 1025M551 1026L552 1027L551 1026M1391 1026L1392 1027L1391 1026M550 1027L551 1028L550 1027M1390 1027L1391 1028L1390 1027M1389 1028L1390 1029L1389 1028M1388 1029L1389 1030L1388 1029M1384 1034L1385 1035L1384 1034M1383 1035L1384 1036L1383 1035M1382 1036L1383 1037L1382 1036M1381 1037L1382 1038L1381 1037M1380 1038L1381 1039L1380 1038M1379 1039L1380 1040L1379 1039M1375 1044L1376 1045L1375 1044M1374 1045L1375 1046L1374 1045M1373 1046L1374 1047L1373 1046M1372 1047L1373 1048L1372 1047M1371 1048L1372 1049L1371 1048M1367 1053L1368 1054L1367 1053M1366 1054L1367 1055L1366 1054M1365 1055L1366 1056L1365 1055M1364 1056L1365 1057L1364 1056M1363 1057L1364 1058L1363 1057M1362 1058L1363 1059L1362 1058M1358 1063L1359 1064L1358 1063M1357 1064L1358 1065L1357 1064M1356 1065L1357 1066L1356 1065M1355 1066L1356 1067L1355 1066z"/>
<path style="fill:#ffff01; stroke:none;" d="M51 1067L52 1068L51 1067z"/>
<path style="fill:#fbc27c; stroke:none;" d="M1354 1067L1355 1068L1354 1067M1353 1068L1354 1069L1353 1068M1349 1073L1350 1074L1349 1073M1348 1074L1349 1075L1348 1074M1039 1075L1039 1120L1040 1120C1040 1107.26 1043.91 1086.7 1039 1075M1347 1075L1348 1076L1347 1075M1346 1076L1347 1077L1346 1076M1345 1077L1346 1078L1345 1077M1340 1083L1341 1084L1340 1083M1339 1084L1340 1085L1339 1084M1338 1085L1339 1086L1338 1085M1337 1086L1338 1087L1337 1086z"/>
<path style="fill:#ffff01; stroke:none;" d="M52 1087L53 1088L52 1087z"/>
<path style="fill:#fbc27c; stroke:none;" d="M1336 1087L1337 1088L1336 1087M1332 1092L1333 1093L1332 1092M1331 1093L1332 1094L1331 1093M1330 1094L1331 1095L1330 1094M1329 1095L1330 1096L1329 1095M1328 1096L1329 1097L1328 1096M1327 1097L1328 1098L1327 1097M1323 1102L1324 1103L1323 1102M1322 1103L1323 1104L1322 1103M1321 1104L1322 1105L1321 1104M1320 1105L1321 1106L1320 1105M1319 1106L1320 1107L1319 1106M1318 1107L1319 1108L1318 1107M1314 1112L1315 1113L1314 1112M1313 1113L1314 1114L1313 1113M1312 1114L1313 1115L1312 1114M1311 1115L1312 1116L1311 1115M1310 1116L1311 1117L1310 1116M1306 1121L1307 1122L1306 1121M1038 1122L1039 1123L1038 1122M1305 1122L1306 1123L1305 1122M1304 1123L1305 1124L1304 1123M1037 1124L1038 1125L1037 1124M1303 1124L1304 1125L1303 1124M1302 1125L1303 1126L1302 1125M1036 1126L1037 1127L1036 1126M1301 1126L1302 1127L1301 1126M1035 1128L1036 1129L1035 1128M1034 1130L1035 1131L1034 1130M1297 1131L1298 1132L1297 1131M1033 1132L1034 1133L1033 1132M1296 1132L1297 1133L1296 1132M1295 1133L1296 1134L1295 1133M1294 1134L1295 1135L1294 1134M1032 1135L1033 1136L1032 1135M1293 1135L1294 1136L1293 1135M1292 1136L1293 1137L1292 1136M1031 1137L1032 1138L1031 1137z"/>
<path style="fill:#ffff01; stroke:none;" d="M1998 1137L1999 1138L1998 1137z"/>
<path style="fill:#fbc27c; stroke:none;" d="M1030 1139L1031 1140L1030 1139M1029 1141L1030 1142L1029 1141M1288 1141L1289 1142L1288 1141M1287 1142L1288 1143L1287 1142M1028 1143L1029 1144L1028 1143M1286 1143L1287 1144L1286 1143M1285 1144L1286 1145L1285 1144M1027 1145L1028 1146L1027 1145M1284 1145L1285 1146L1284 1145M1026 1147L1027 1148L1026 1147M1025 1150L1026 1151L1025 1150M1280 1150L1281 1151L1280 1150M1279 1151L1280 1152L1279 1151M1024 1152L1025 1153L1024 1152M1278 1152L1279 1153L1278 1152M1277 1153L1278 1154L1277 1153M1023 1154L1024 1155L1023 1154M1276 1154L1277 1155L1276 1154M1275 1155L1276 1156L1275 1155M1022 1156L1023 1157L1022 1156M1021 1158L1022 1159L1021 1158z"/>
<path style="fill:#ffff01; stroke:none;" d="M59 1159L60 1160L59 1159z"/>
<path style="fill:#fbc27c; stroke:none;" d="M1020 1160L1021 1161L1020 1160M1271 1160L1272 1161L1271 1160M1270 1161L1271 1162L1270 1161M1019 1162L1020 1163L1019 1162M1269 1162L1270 1163L1269 1162M1268 1163L1269 1164L1268 1163M1267 1164L1268 1165L1267 1164M1018 1165L1019 1166L1018 1165M1266 1165L1267 1166L1266 1165M1017 1167L1018 1168L1017 1167M1016 1169L1017 1170L1016 1169M1262 1170L1263 1171L1262 1170M1015 1171L1016 1172L1015 1171M1261 1171L1262 1172L1261 1171M1260 1172L1261 1173L1260 1172M1014 1173L1015 1174L1014 1173M1259 1173L1260 1174L1259 1173M1258 1174L1259 1175L1258 1174M1013 1175L1014 1176L1013 1175M1012 1177L1013 1178L1012 1177M1011 1180L1012 1181L1011 1180M1253 1180L1254 1181L1253 1180M1252 1181L1253 1182L1252 1181M1010 1182L1011 1183L1010 1182M1251 1182L1252 1183L1251 1182M1250 1183L1251 1184L1250 1183M1009 1184L1010 1185L1009 1184M1249 1184L1250 1185L1249 1184M1008 1186L1009 1187L1008 1186M1007 1188L1008 1189L1007 1188M1245 1189L1246 1190L1245 1189M1006 1190L1007 1191L1006 1190M1244 1190L1245 1191L1244 1190M1243 1191L1244 1192L1243 1191M1005 1192L1006 1193L1005 1192M1242 1192L1243 1193L1242 1192M1241 1193L1242 1194L1241 1193M1004.33 1194.67L1004.67 1195.33L1004.33 1194.67M1240 1194L1241 1195L1240 1194M1003 1197L1004 1198L1003 1197M1002 1199L1003 1200L1002 1199M1236 1199L1237 1200L1236 1199M1235 1200L1236 1201L1235 1200M1001 1201L1002 1202L1001 1201M1234 1201L1235 1202L1234 1201M1233 1202L1234 1203L1233 1202M1000 1203L1001 1204L1000 1203M1232 1203L1233 1204L1232 1203M1231 1204L1232 1205L1231 1204M999 1205L1000 1206L999 1205M998 1207L999 1208L998 1207M997.333 1209.67L997.667 1210.33L997.333 1209.67M1227 1209L1228 1210L1227 1209M1226 1210L1227 1211L1226 1210M1225 1211L1226 1212L1225 1211M996 1212L997 1213L996 1212M1224 1212L1225 1213L1224 1212M1223 1213L1224 1214L1223 1213z"/>
<path style="fill:#ffff01; stroke:none;" d="M68 1214L69 1215L68 1214z"/>
<path style="fill:#fbc27c; stroke:none;" d="M995 1214L996 1215L995 1214M994 1216L995 1217L994 1216M993 1218L994 1219L993 1218M1219 1218L1220 1219L1219 1218z"/>
<path style="fill:#ffff01; stroke:none;" d="M69 1219L70 1220L69 1219z"/>
<path style="fill:#fbc27c; stroke:none;" d="M1218 1219L1219 1220L1218 1219M992 1220L993 1221L992 1220M1217 1220L1218 1221L1217 1220M1216 1221L1217 1222L1216 1221M991 1222L992 1223L991 1222M1215 1222L1216 1223L1215 1222M1214 1223L1215 1224L1214 1223M990 1224L991 1225L990 1224M989 1227L990 1228L989 1227M1210 1228L1211 1229L1210 1228M988 1229L989 1230L988 1229M1209 1229L1210 1230L1209 1229M1208 1230L1209 1231L1208 1230M987 1231L988 1232L987 1231M1207 1231L1208 1232L1207 1231M1206 1232L1207 1233L1206 1232M986 1233L987 1234L986 1233M1205 1233L1206 1234L1205 1233M985 1235L986 1236L985 1235z"/>
<path style="fill:#ffff01; stroke:none;" d="M1982 1235L1983 1236L1982 1235z"/>
<path style="fill:#fbc27c; stroke:none;" d="M984 1237L985 1238L984 1237M1201 1238L1202 1239L1201 1238M983 1239L984 1240L983 1239M1200 1239L1201 1240L1200 1239M1199 1240L1200 1241L1199 1240M1198 1241L1199 1242L1198 1241M982 1242L983 1243L982 1242M1197 1242L1198 1243L1197 1242M981 1244L982 1245L981 1244z"/>
<path style="fill:#ffff01; stroke:none;" d="M1980 1244L1981 1245L1980 1244z"/>
<path style="fill:#fbc27c; stroke:none;" d="M980 1246L981 1247L980 1246M979 1248L980 1249L979 1248M1192 1248L1193 1249L1192 1248M1191 1249L1192 1250L1191 1249M978 1250L979 1251L978 1250M1190 1250L1191 1251L1190 1250M1189 1251L1190 1252L1189 1251M977 1252L978 1253L977 1252M1188 1252L1189 1253L1188 1252M976 1254L977 1255L976 1254M975 1257L976 1258L975 1257M1184 1257L1185 1258L1184 1257M1183 1258L1184 1259L1183 1258M974 1259L975 1260L974 1259M1182 1259L1183 1260L1182 1259M1181 1260L1182 1261L1181 1260M973 1261L974 1262L973 1261M1180 1261L1181 1262L1180 1261z"/>
<path style="fill:#ffff01; stroke:none;" d="M1976 1261L1977 1262L1976 1261z"/>
<path style="fill:#fbc27c; stroke:none;" d="M1179 1262L1180 1263L1179 1262M972 1263L973 1264L972 1263M971 1265L972 1266L971 1265z"/>
<path style="fill:#ffff01; stroke:none;" d="M1975 1265L1976 1266L1975 1265z"/>
<path style="fill:#fbc27c; stroke:none;" d="M970 1267L971 1268L970 1267M1175 1267L1176 1268L1175 1267M1174 1268L1175 1269L1174 1268M969 1269L970 1270L969 1269M1173 1269L1174 1270L1173 1269z"/>
<path style="fill:#ffff01; stroke:none;" d="M1974 1269L1975 1270L1974 1269z"/>
<path style="fill:#fbc27c; stroke:none;" d="M1172 1270L1173 1271L1172 1270M1171 1271L1172 1272L1171 1271M968 1272L969 1273L968 1272M1170 1272L1171 1273L1170 1272M967 1274L968 1275L967 1274M966 1276L967 1277L966 1276M1166 1277L1167 1278L1166 1277M965 1278L966 1279L965 1278M1165 1278L1166 1279L1165 1278M1164 1279L1165 1280L1164 1279M964 1280L965 1281L964 1280M1163 1280L1164 1281L1163 1280M1162 1281L1163 1282L1162 1281M963 1282L964 1283L963 1282M962 1284L963 1285L962 1284M961.333 1286.67L961.667 1287.33L961.333 1286.67M1158 1286L1159 1287L1158 1286M1157 1287L1158 1288L1157 1287M1156 1288L1157 1289L1156 1288M960 1289L961 1290L960 1289M1155 1289L1156 1290L1155 1289M1154 1290L1155 1291L1154 1290M959 1291L960 1292L959 1291M1153 1291L1154 1292L1153 1291M958 1293L959 1294L958 1293M957 1295L958 1296L957 1295z"/>
<path style="fill:#ffff01; stroke:none;" d="M1967 1295L1968 1296L1967 1295z"/>
<path style="fill:#fbc27c; stroke:none;" d="M1149 1296L1150 1297L1149 1296M956 1297L957 1298L956 1297M1148 1297L1149 1298L1148 1297M1147 1298L1148 1299L1147 1298M955 1299L956 1300L955 1299M1146 1299L1147 1300L1146 1299M1145 1300L1146 1301L1145 1300M954.333 1301.67L954.667 1302.33L954.333 1301.67M1144 1301L1145 1302L1144 1301M953 1304L954 1305L953 1304M952 1306L953 1307L952 1306M1140 1306L1141 1307L1140 1306M1139 1307L1140 1308L1139 1307M951 1308L952 1309L951 1308M1138 1308L1139 1309L1138 1308M1137 1309L1138 1310L1137 1309M950 1310L951 1311L950 1310M1136 1310L1137 1311L1136 1310z"/>
<path style="fill:#ffff01; stroke:none;" d="M92 1311L93 1312L92 1311z"/>
<path style="fill:#fbc27c; stroke:none;" d="M949 1312L950 1313L949 1312M948 1314L949 1315L948 1314M1132 1315L1133 1316L1132 1315M947 1316L948 1317L947 1316M1131 1316L1132 1317L1131 1316M1130 1317L1131 1318L1130 1317M1129 1318L1130 1319L1129 1318M946 1319L947 1320L946 1319M1128 1319L1129 1320L1128 1319M1127 1320L1128 1321L1127 1320M945 1321L946 1322L945 1321M944 1323L945 1324L944 1323M943 1325L944 1326L943 1325M1123 1325L1124 1326L1123 1325M1122 1326L1123 1327L1122 1326z"/>
<path style="fill:#ffff01; stroke:none;" d="M97 1327L98 1328L97 1327z"/>
<path style="fill:#fbc27c; stroke:none;" d="M942 1327L943 1328L942 1327M1121 1327L1122 1328L1121 1327M1120 1328L1121 1329L1120 1328M941 1329L942 1330L941 1329M1119 1329L1120 1330L1119 1329M1118 1330L1119 1331L1118 1330M940 1331L941 1332L940 1331M939 1334L940 1335L939 1334M1114 1335L1115 1336L1114 1335M938 1336L939 1337L938 1336M1113 1336L1114 1337L1113 1336M1112 1337L1113 1338L1112 1337z"/>
<path style="fill:#ffff01; stroke:none;" d="M1954 1337L1955 1338L1954 1337z"/>
<path style="fill:#fbc27c; stroke:none;" d="M937 1338L938 1339L937 1338M1111 1338L1112 1339L1111 1338M1110 1339L1111 1340L1110 1339M936 1340L937 1341L936 1340M935 1342L936 1343L935 1342z"/>
<path style="fill:#ffff01; stroke:none;" d="M1952 1343L1953 1344L1952 1343z"/>
<path style="fill:#fbc27c; stroke:none;" d="M934 1344L935 1345L934 1344M1105 1345L1106 1346L1105 1345M933 1346L934 1347L933 1346M1104 1346L1105 1347L1104 1346M1103 1347L1104 1348L1103 1347M1102 1348L1103 1349L1102 1348M932 1349L933 1350L932 1349M1101 1349L1102 1350L1101 1349M931 1351L932 1352L931 1351M930 1353L931 1354L930 1353M1097 1354L1098 1355L1097 1354M929 1355L930 1356L929 1355M1096 1355L1097 1356L1096 1355M1095 1356L1096 1357L1095 1356M928 1357L929 1358L928 1357M1094 1357L1095 1358L1094 1357M1093 1358L1094 1359L1093 1358M927 1359L928 1360L927 1359M1092 1359L1093 1360L1092 1359z"/>
<path style="fill:#ffff01; stroke:none;" d="M1946 1360L1947 1361L1946 1360z"/>
<path style="fill:#fbc27c; stroke:none;" d="M926 1361L927 1362L926 1361z"/>
<path style="fill:#ffff01; stroke:none;" d="M109 1362L110 1363L109 1362z"/>
<path style="fill:#fbc27c; stroke:none;" d="M925 1364L926 1365L925 1364M1088 1364L1089 1365L1088 1364M1087 1365L1088 1366L1087 1365M924 1366L925 1367L924 1366M1086 1366L1087 1367L1086 1366M1085 1367L1086 1368L1085 1367M923 1368L924 1369L923 1368M1084 1368L1085 1369L1084 1368M1083 1369L1084 1370L1083 1369M922 1370L923 1371L922 1370M921 1372L922 1373L921 1372M920 1374L921 1375L920 1374M1079 1374L1080 1375L1079 1374M1078 1375L1079 1376L1078 1375M919 1376L920 1377L919 1376M1077 1376L1078 1377L1077 1376z"/>
<path style="fill:#ffff01; stroke:none;" d="M1940 1376L1941 1377L1940 1376z"/>
<path style="fill:#fbc27c; stroke:none;" d="M1076 1377L1077 1378L1076 1377M918.333 1378.67L918.667 1379.33L918.333 1378.67M1075 1378L1076 1379L1075 1378M917 1381L918 1382L917 1381M916 1383L917 1384L916 1383M1071 1383L1072 1384L1071 1383M1070 1384L1071 1385L1070 1384M915 1385L916 1386L915 1385M1069 1385L1070 1386L1069 1385M1068 1386L1069 1387L1068 1386M914 1387L915 1388L914 1387M1067 1387L1068 1388L1067 1387M1066 1388L1067 1389L1066 1388M913 1389L914 1390L913 1389M912 1391L913 1392L912 1391M911.333 1393.67L911.667 1394.33L911.333 1393.67M1062 1393L1063 1394L1062 1393M1061 1394L1062 1395L1061 1394M1060 1395L1061 1396L1060 1395M910 1396L911 1397L910 1396M1059 1396L1060 1397L1059 1396M1058 1397L1059 1398L1058 1397M909 1398L910 1399L909 1398M1057 1398L1058 1399L1057 1398M908 1400L909 1401L908 1400M907 1402L908 1403L907 1402M1053 1403L1054 1404L1053 1403M906 1404L907 1405L906 1404M1052 1404L1053 1405L1052 1404M1051 1405L1052 1406L1051 1405M905 1406L906 1407L905 1406M1050 1406L1051 1407L1050 1406M1049 1407L1050 1408L1049 1407M904 1408L905 1409L904 1408z"/>
<path style="fill:#ffff01; stroke:none;" d="M128 1410L129 1411L128 1410z"/>
<path style="fill:#fbc27c; stroke:none;" d="M903 1411L904 1412L903 1411M902 1413L903 1414L902 1413M1044 1413L1045 1414L1044 1413M1043 1414L1044 1415L1043 1414M901 1415L902 1416L901 1415M1042 1415L1043 1416L1042 1415M1041 1416L1042 1417L1041 1416M900 1417L901 1418L900 1417M1040 1417L1041 1418L1040 1417M899 1419L900 1420L899 1419M898 1421L899 1422L898 1421M1036 1422L1037 1423L1036 1422M897 1423L898 1424L897 1423M1035 1423L1036 1424L1035 1423M1034 1424L1035 1425L1034 1424M1033 1425L1034 1426L1033 1425z"/>
<path style="fill:#ffff01; stroke:none;" d="M135 1426L136 1427L135 1426z"/>
<path style="fill:#fbc27c; stroke:none;" d="M896 1426L897 1427L896 1426M1032 1426L1033 1427L1032 1426M1031 1427L1032 1428L1031 1427M895 1428L896 1429L895 1428z"/>
<path style="fill:#ffff01; stroke:none;" d="M1918 1429L1919 1430L1918 1429z"/>
<path style="fill:#fbc27c; stroke:none;" d="M894 1430L895 1431L894 1430M893 1432L894 1433L893 1432M1027 1432L1028 1433L1027 1432M1026 1433L1027 1434L1026 1433M892 1434L893 1435L892 1434M1025 1434L1026 1435L1025 1434M1024 1435L1025 1436L1024 1435M891 1436L892 1437L891 1436M1023 1436L1024 1437L1023 1436M1022 1437L1023 1438L1022 1437M890 1438L891 1439L890 1438M889 1441L890 1442L889 1441M1018 1442L1019 1443L1018 1442M888 1443L889 1444L888 1443M1017 1443L1018 1444L1017 1443M1016 1444L1017 1445L1016 1444M887 1445L888 1446L887 1445M1015 1445L1016 1446L1015 1445M1014 1446L1015 1447L1014 1446M886 1447L887 1448L886 1447M885 1449L886 1450L885 1449M884 1451L885 1452L884 1451M1010 1451L1011 1452L1010 1451M1009 1452L1010 1453L1009 1452M883 1453L884 1454L883 1453M1008 1453L1009 1454L1008 1453M1007 1454L1008 1455L1007 1454M882.333 1455.67L882.667 1456.33L882.333 1455.67M1006 1455L1007 1456L1006 1455M1005 1456L1006 1457L1005 1456M881 1458L882 1459L881 1458M880 1460L881 1461L880 1460M1001 1461L1002 1462L1001 1461M879 1462L880 1463L879 1462M1000 1462L1001 1463L1000 1462M999 1463L1000 1464L999 1463M878 1464L879 1465L878 1464M998 1464L999 1465L998 1464M997 1465L998 1466L997 1465z"/>
<path style="fill:#ffff01; stroke:none;" d="M154 1466L155 1467L154 1466z"/>
<path style="fill:#fbc27c; stroke:none;" d="M877 1466L878 1467L877 1466M996 1466L997 1467L996 1466z"/>
<path style="fill:#ffff01; stroke:none;" d="M155 1468L156 1469L155 1468z"/>
<path style="fill:#fbc27c; stroke:none;" d="M876 1468L877 1469L876 1468z"/>
<path style="fill:#ffff01; stroke:none;" d="M156 1470L157 1471L156 1470z"/>
<path style="fill:#fbc27c; stroke:none;" d="M875.333 1470.67L875.667 1471.33L875.333 1470.67M992 1471L993 1472L992 1471M991 1472L992 1473L991 1472M874 1473L875 1474L874 1473M990 1473L991 1474L990 1473M989 1474L990 1475L989 1474M873 1475L874 1476L873 1475M988 1475L989 1476L988 1475M872 1477L873 1478L872 1477M871 1479L872 1480L871 1479M870 1481L871 1482L870 1481M983 1481L984 1482L983 1481M982 1482L983 1483L982 1482M869 1483L870 1484L869 1483M981 1483L982 1484L981 1483M980 1484L981 1485L980 1484z"/>
<path style="fill:#ffff01; stroke:none;" d="M1891 1484L1892 1485L1891 1484z"/>
<path style="fill:#fbc27c; stroke:none;" d="M868 1485L869 1486L868 1485M979 1485L980 1486L979 1485M867 1488L868 1489L867 1488M866 1490L867 1491L866 1490M975 1490L976 1491L975 1490M974 1491L975 1492L974 1491M865 1492L866 1493L865 1492M973 1492L974 1493L973 1492M972 1493L973 1494L972 1493M864 1494L865 1495L864 1494M971 1494L972 1495L971 1494M970 1495L971 1496L970 1495M863 1496L864 1497L863 1496z"/>
<path style="fill:#ffff01; stroke:none;" d="M1884 1497L1885 1498L1884 1497z"/>
<path style="fill:#fbc27c; stroke:none;" d="M862 1498L863 1499L862 1498M861 1500L862 1501L861 1500M966 1500L967 1501L966 1500M965 1501L966 1502L965 1501M964 1502L965 1503L964 1502M860 1503L861 1504L860 1503M963 1503L964 1504L963 1503M962 1504L963 1505L962 1504M859 1505L860 1506L859 1505M858 1507L859 1508L858 1507z"/>
<path style="fill:#ffff01; stroke:none;" d="M177 1509L178 1510L177 1509z"/>
<path style="fill:#fbc27c; stroke:none;" d="M857 1509L858 1510L857 1509M957 1510L958 1511L957 1510M856 1511L857 1512L856 1511M956 1511L957 1512L956 1511M955 1512L956 1513L955 1512M855 1513L856 1514L855 1513M954 1513L955 1514L954 1513M953 1514L954 1515L953 1514M854 1515L855 1516L854 1515z"/>
<path style="fill:#ffff01; stroke:none;" d="M181 1516L182 1517L181 1516z"/>
<path style="fill:#fbc27c; stroke:none;" d="M853 1518L854 1519L853 1518M949 1519L950 1520L949 1519M852 1520L853 1521L852 1520M948 1520L949 1521L948 1520M947 1521L948 1522L947 1521M851 1522L852 1523L851 1522M946 1522L947 1523L946 1522M945 1523L946 1524L945 1523M850 1524L851 1525L850 1524M944 1524L945 1525L944 1524z"/>
<path style="fill:#ffff01; stroke:none;" d="M1868 1525L1869 1526L1868 1525z"/>
<path style="fill:#fbc27c; stroke:none;" d="M849 1526L850 1527L849 1526M848 1528L849 1529L848 1528M940 1529L941 1530L940 1529M847 1530L848 1531L847 1530M939 1530L940 1531L939 1530M938 1531L939 1532L938 1531M937 1532L938 1533L937 1532M846 1533L847 1534L846 1533M936 1533L937 1534L936 1533M935 1534L936 1535L935 1534M845 1535L846 1536L845 1535M844 1537L845 1538L844 1537M843 1539L844 1540L843 1539M931 1539L932 1540L931 1539M930 1540L931 1541L930 1540z"/>
<path style="fill:#ffff01; stroke:none;" d="M196 1541L197 1542L196 1541z"/>
<path style="fill:#fbc27c; stroke:none;" d="M842 1541L843 1542L842 1541M929 1541L930 1542L929 1541M928 1542L929 1543L928 1542M841 1543L842 1544L841 1543M927 1543L928 1544L927 1543M840 1545L841 1546L840 1545M839.333 1547.67L839.667 1548.33L839.333 1547.67M923 1548L924 1549L923 1548z"/>
<path style="fill:#ffff01; stroke:none;" d="M201 1549L202 1550L201 1549z"/>
<path style="fill:#fbc27c; stroke:none;" d="M922 1549L923 1550L922 1549M838 1550L839 1551L838 1550M921 1550L922 1551L921 1550M920 1551L921 1552L920 1551M837 1552L838 1553L837 1552M919 1552L920 1553L919 1552M918 1553L919 1554L918 1553M836 1554L837 1555L836 1554M835 1556L836 1557L835 1556M834 1558L835 1559L834 1558M914 1558L915 1559L914 1558M913 1559L914 1560L913 1559M833 1560L834 1561L833 1560M912 1560L913 1561L912 1560M911 1561L912 1562L911 1561M832.333 1562.67L832.667 1563.33L832.333 1562.67M910 1562L911 1563L910 1562M909 1563L910 1564L909 1563M831 1565L832 1566L831 1565M830 1567L831 1568L830 1567M905 1568L906 1569L905 1568z"/>
<path style="fill:#ffff01; stroke:none;" d="M214 1569L215 1570L214 1569z"/>
<path style="fill:#fbc27c; stroke:none;" d="M829 1569L830 1570L829 1569M904 1569L905 1570L904 1569M903 1570L904 1571L903 1570M828 1571L829 1572L828 1571M902 1571L903 1572L902 1571z"/>
<path style="fill:#ffff01; stroke:none;" d="M1839 1571L1840 1572L1839 1571z"/>
<path style="fill:#fbc27c; stroke:none;" d="M901 1572L902 1573L901 1572M827 1573L828 1574L827 1573z"/>
<path style="fill:#ffff01; stroke:none;" d="M1837 1574L1838 1575L1837 1574M218 1575L219 1576L218 1575z"/>
<path style="fill:#fbc27c; stroke:none;" d="M826 1575L827 1576L826 1575M825 1577L826 1578L825 1577M896 1578L897 1579L896 1578M895 1579L896 1580L895 1579M824 1580L825 1581L824 1580M894 1580L895 1581L894 1580M893 1581L894 1582L893 1581M823 1582L824 1583L823 1582M892 1582L893 1583L892 1582M822 1584L823 1585L822 1584M821 1586L822 1587L821 1586M888 1587L889 1588L888 1587z"/>
<path style="fill:#ffff01; stroke:none;" d="M1828 1587L1829 1588L1828 1587M227 1588L228 1589L227 1588z"/>
<path style="fill:#fbc27c; stroke:none;" d="M820 1588L821 1589L820 1588M887 1588L888 1589L887 1588M886 1589L887 1590L886 1589M819 1590L820 1591L819 1590M885 1590L886 1591L885 1590M884 1591L885 1592L884 1591M818 1592L819 1593L818 1592M883 1592L884 1593L883 1592M817 1595L818 1596L817 1595M816 1597L817 1598L816 1597M879 1597L880 1598L879 1597M878 1598L879 1599L878 1598M815 1599L816 1600L815 1599M877 1599L878 1600L877 1599M876 1600L877 1601L876 1600M814 1601L815 1602L814 1601M875 1601L876 1602L875 1601z"/>
<path style="fill:#ffff01; stroke:none;" d="M1818 1601L1819 1602L1818 1601z"/>
<path style="fill:#fbc27c; stroke:none;" d="M874 1602L875 1603L874 1602M813 1603L814 1604L813 1603M812 1605L813 1606L812 1605M811 1607L812 1608L811 1607M870 1607L871 1608L870 1607M869 1608L870 1609L869 1608M868 1609L869 1610L868 1609M810 1610L811 1611L810 1610M867 1610L868 1611L867 1610M866 1611L867 1612L866 1611M809 1612L810 1613L809 1612M808 1614L809 1615L808 1614M807 1616L808 1617L807 1616M862 1616L863 1617L862 1616M861 1617L862 1618L861 1617M806 1618L807 1619L806 1618M860 1618L861 1619L860 1618M859 1619L860 1620L859 1619M805 1620L806 1621L805 1620M858 1620L859 1621L858 1620M857 1621L858 1622L857 1621z"/>
<path style="fill:#ffff01; stroke:none;" d="M252 1622L253 1623L252 1622z"/>
<path style="fill:#fbc27c; stroke:none;" d="M804 1622L805 1623L804 1622M803 1625L804 1626L803 1625z"/>
<path style="fill:#ffff01; stroke:none;" d="M1800 1625L1801 1626L1800 1625z"/>
<path style="fill:#fbc27c; stroke:none;" d="M853 1626L854 1627L853 1626M802 1627L803 1628L802 1627M852 1627L853 1628L852 1627M851 1628L852 1629L851 1628M801 1629L802 1630L801 1629M850 1629L851 1630L850 1629M849 1630L850 1631L849 1630M800 1631L801 1632L800 1631M848 1631L849 1632L848 1631M799 1633L800 1634L799 1633M798 1635L799 1636L798 1635M844 1636L845 1637L844 1636M797 1637L798 1638L797 1637M843 1637L844 1638L843 1637M842 1638L843 1639L842 1638M796.333 1639.67L796.667 1640.33L796.333 1639.67M841 1639L842 1640L841 1639M840 1640L841 1641L840 1640z"/>
<path style="fill:#ffff01; stroke:none;" d="M267 1641L268 1642L267 1641z"/>
<path style="fill:#fbc27c; stroke:none;" d="M795 1642L796 1643L795 1642z"/>
<path style="fill:#ffff01; stroke:none;" d="M271 1646L272 1647L271 1646z"/>
<path style="fill:#fbc27c; stroke:none;" d="M835 1646L836 1647L835 1646M834 1647L835 1648L834 1647M833 1648L834 1649L833 1648M832 1649L833 1650L832 1649M831 1650L832 1651L831 1650z"/>
<path style="fill:#ffff01; stroke:none;" d="M276 1652L277 1653L276 1652z"/>
<path style="fill:#fbc27c; stroke:none;" d="M827 1655L828 1656L827 1655M795 1656L795 1659L796 1659L795 1656M826 1656L827 1657L826 1656M825 1657L826 1658L825 1657M824 1658L825 1659L824 1658M823 1659L824 1660L823 1659M822 1660L823 1661L822 1660M796.333 1661.67L796.667 1662.33L796.333 1661.67M797 1665L798 1666L797 1665M818 1665L819 1666L818 1665M817 1666L818 1667L817 1666M798 1667L799 1668L798 1667M816 1667L817 1668L816 1667M815 1668L816 1669L815 1668M799 1669L800 1670L799 1669M814 1669L815 1670L814 1669M800 1671L801 1672L800 1671M801 1672L802 1673L801 1672z"/>
<path style="fill:#ffff01; stroke:none;" d="M294 1673L295 1674L294 1673z"/>
<path style="fill:#fbc27c; stroke:none;" d="M802 1674L803 1675L802 1674M803 1675L804 1676L803 1675M809 1675L810 1676L809 1675M804 1676L805 1677L804 1676M808 1676L809 1677L808 1676M805 1677L806 1678L805 1677M807 1677L808 1678L807 1677M806 1678L807 1679L806 1678z"/>
<path style="fill:#ffff01; stroke:none;" d="M302 1682L303 1683L302 1682M314 1695L315 1696L314 1695M1724 1712L1725 1713L1724 1712M1712 1724L1713 1725L1712 1724M359 1740L360 1741L359 1740M372 1752L373 1753L372 1752M1679 1755L1680 1756L1679 1755M381 1760L382 1761L381 1760M396 1773L397 1774L396 1773M408 1783L409 1784L408 1783M428 1799L429 1800L428 1799M1625 1800L1626 1801L1625 1800M452 1817L453 1818L452 1817M1601 1818L1602 1819L1601 1818M463 1825L464 1826L463 1825M1587 1828L1588 1829L1587 1828M476 1834L477 1835L476 1834M1574 1837L1575 1838L1574 1837M1571 1839L1572 1840L1571 1839M494 1846L495 1847L494 1846M497 1848L498 1849L497 1848M526 1866L527 1867L526 1866M1525 1868L1526 1869L1525 1868M543 1876L544 1877L543 1876M1484 1891L1485 1892L1484 1891M606 1909L607 1910L606 1909M621 1916L622 1917L621 1916M1429 1918L1430 1919L1429 1918M1376 1940L1377 1941L1376 1940M1360 1946L1361 1947L1360 1946M1337 1954L1338 1955L1337 1954M1295 1967L1296 1968L1295 1967M1269 1974L1270 1975L1269 1974M1265 1975L1266 1976L1265 1975M1244 1980L1245 1981L1244 1980M1235 1982L1236 1983L1235 1982z"/>
</svg>
